<svg height="108dp" width="108dp" viewBox="0 0 512 512" xmlns="http://www.w3.org/2000/svg">
	<path fill="#000000" d="m160.39,145c-0.53,20.57 1.43,41.24 5.75,61.7l24.29,-5.47c-1.28,-9.38 -1.97,-18.85 -1.73,-28.32l0.11,-4.37h23.71v-23.55h-52.13zm147.17,0v23.55h22.03l0.11,4.37c0.24,9.39 -0.23,18.88 -1.47,28.32l24.04,5.44c4.34,-20.47 6.26,-41.1 5.74,-61.68h-50.46zm-63.19,0.65v21.98h31.22v-21.98h-31.22zm-22.87,7.54v24.33h-23.83c0.04,8.8 0.82,17.66 2.19,26.5l0.64,4.15 -24.1,5.42c1.51,6.53 3.3,13.04 5.36,19.52l19.73,-2.98 24.38,51.4 -15.24,13.67c3.41,5.48 7.02,10.91 10.85,16.3l20.4,-15.1 2.71,3.32c4.63,5.68 9.56,11.32 14.77,16.76 5.22,-5.41 10.13,-10.84 14.72,-16.48l2.7,-3.32 20.08,14.83c3.86,-5.43 7.51,-10.92 10.94,-16.45l-15.07,-13.51 24.38,-51.4 19.5,2.94c2.07,-6.48 3.86,-13 5.39,-19.52l-23.83,-5.39 0.65,-4.14c1.37,-8.77 1.95,-17.65 1.93,-26.5h-22.17v-24.33h-14.03v23.41h-49.16v-23.41h-13.9zm-6.68,38.04h89l0.11,4.38c0.84,35.06 -13.4,66.23 -41.33,95.95l-3.26,3.47 -3.27,-3.46c-28.11,-29.79 -42.19,-60.94 -41.34,-95.96l0.11,-4.38zm8.87,8.97c0.39,29.37 12.05,55.49 35.62,81.63 23.45,-26.09 35.22,-52.25 35.63,-81.63h-71.25zm-27.44,39.8l-26.02,3.92 25.12,52.94 19.56,-17.54 -18.66,-39.32zm126.13,0l-18.66,39.32 19.56,17.54l25.12,-52.94l-26.02,-3.92zm-81.96,68.65l-20.5,15.18c11.48,15.7 24.63,30.96 39.43,45.71 14.75,-14.75 27.7,-29.97 39.14,-45.69l-20.23,-14.94c-4.93,5.87 -10.07,11.6 -15.74,17.27l-3.17,3.17 -3.17,-3.16c-5.72,-5.71 -10.87,-11.64 -15.77,-17.53z" />
</svg>